<?xml version="1.0" encoding="UTF-8"?>
<svg id="Capa_1" xmlns="http://www.w3.org/2000/svg" version="1.1" viewBox="0 0 1080 1080">
  <!-- Generator: Adobe Illustrator 29.5.0, SVG Export Plug-In . SVG Version: 2.1.0 Build 137)  -->
  <defs>
    <style>
      .st0 {
        fill: #fff;
      }

      .st1 {
        fill: #765898;
      }
    </style>
  </defs>
  <path class="st1" d="M497.42,351.42c0,40.73,0,81.46,0,122.19,38.45,47.47,76.91,94.95,115.36,142.42v-353.4c-38.45,29.6-76.91,59.19-115.36,88.79Z"/>
  <path class="st0" d="M279.6,961.81h115.36c0-104.27,0-208.54,0-312.8,84.47,104.27,168.94,208.54,253.42,312.8,50.67,0,101.34,0,152.01,0-140.32-173.2-280.63-346.39-420.95-519.59-33.28,25.62-66.56,51.24-99.84,76.86v442.72Z"/>
  <path class="st1" d="M685.05,206.99v498.23c38.45,47.47,76.9,94.93,115.34,142.4,0-243.14,0-486.29,0-729.43-38.45,29.6-76.9,59.2-115.35,88.8Z"/>
</svg>